<svg xmlns="http://www.w3.org/2000/svg" viewBox="-1 -1 142 20.9" role="img"><path d="M0,3.9L0.1,3.8L0.2,3.4L0.4,2.6L0.4,2.5L0.5,2.3L1,1.8L1.3,1.5L1.9,1L2.3,0.8L2.5,0.7L2.9,0.5L3.5,0.3L4.2,0.2L4.5,0.1L4.7,0.1L5.2,0.2L5.3,0.2L6.1,0.2L7.8,0.1L8.2,0L133.5,0L133.6,0.1L134.9,0.3L135.9,0.5L136.9,0.7L137.3,0.8L137.7,1L138.1,1.2L138.4,1.5L138.9,1.9L139.3,2.5L139.6,2.8L139.6,2.9L139.7,3.2L139.8,4.1L139.8,6.3L139.7,6.7L139.7,7.5L139.7,7.8L139.7,8.5L139.7,9.5L139.8,10.2L139.8,11.7L139.8,12L139.9,12.9L139.9,13L140,13L140,14.2L139.9,14.2L139.9,14.4L139.8,14.6L139.7,15.6L139.7,15.8L139.6,16L139.4,16.3L139.2,16.6L138.9,17L138.5,17.3L138.1,17.6L137.7,17.9L137.3,18.1L136.7,18.4L136.5,18.5L136.1,18.6L135,18.7L134.9,18.8L134.8,18.9L5.8,18.9L5.8,18.8L5.7,18.8L5.6,18.8L4.9,18.8L4.3,18.7L3.7,18.5L2.9,18.2L2.1,17.9L1.9,17.8L1.5,17.6L1.1,17.3L0.8,16.9L0.5,16.6L0.4,16.4L0.2,16.1L0.2,15.9L0.1,15.6L0.1,15.4L0,15.3L0,3.9Z M3.5,12.9L3.5,13.1L3.5,13.7L3.6,14.3L3.8,15L3.9,15.3L4,15.6L4.2,15.8L4.4,16L4.7,16.2L5.1,16.3L5.4,16.3L5.7,16.4L6.5,16.4L6.9,16.3L7.5,16.2L8.9,16.1L9.7,16L10,16L10.1,15.9L10.4,15.8L10.5,15.7L10.8,15.5L10.9,15.3L11,15.1L11,14.9L11,14.8L11,14L10.9,4.3L10.9,3.8L10.8,2.8L10.7,2.6L10.6,2.6L10.5,2.5L9.9,2.5L9.5,2.5L9.2,2.5L8.7,2.6L8.4,2.6L6,2.6L4.9,2.7L4.7,2.7L4.6,2.7L4.3,2.8L4.1,3L4,3.1L3.9,3.2L3.8,3.3L3.7,3.7L3.6,4.2L3.5,5.8L3.5,12.4L3.5,12.9Z M13.3,15.6L13.3,16L13.4,16.1L13.6,16.1L14.1,16.1L15,16.1L15.3,16.1L15.5,16L15.6,15.9L15.6,15.8L15.5,15.7L15.1,15.2L14.4,14.1L14.3,14L14.2,14L14.1,14L13.9,14.4L13.7,14.6L13.5,14.8L13.4,14.9L13.3,15.2L13.3,15.6Z M14,3.8L14.1,4.1L14.1,4.5L14.2,4.7L14.4,5L14.6,5.1L14.7,5.3L15,5.4L15.1,5.4L15.3,5.4L15.8,5.4L15.7,5.7L15.6,5.9L14.7,6.8L14.3,7.3L14.2,7.5L14.1,7.6L14.1,7.8L14.2,7.9L14.3,7.9L14.4,7.8L14.5,7.8L14.6,7.7L15.6,7L16.1,6.7L16.6,6.4L17.1,6.1L17.6,5.9L18.1,5.7L18.6,5.5L19.4,5.3L19.9,5.2L20.5,5.1L22.1,5L22.7,5L23.2,5L23.6,5.1L24,5.1L24.4,5.2L24.7,5.3L25,5.4L25.5,5.7L26.2,6.1L27,6.7L27.6,7.2L27.8,7.4L28.2,7.8L28.6,8.3L28.7,8.5L28.8,8.8L28.9,9.3L28.9,9.6L28.9,9.9L28.8,10.3L28.5,11L28.2,11.6L28.1,11.9L27.6,12.7L27.3,13L26.8,13.5L26.6,13.7L26.4,13.8L25.7,14.1L25.1,14.3L24,14.7L23.3,14.8L22.8,14.9L22.3,14.9L21.5,14.9L21.1,14.8L20.8,14.7L20.5,14.6L20.1,14.4L19.8,14.2L19.4,13.8L19.1,13.6L19,13.5L18.7,13L18.6,12.7L18.5,12.4L18.4,12.1L18.4,11.8L18.4,11.6L18.5,11.3L18.6,11L18.9,10.6L19.3,10.2L19.7,9.7L20.1,9.4L20.4,9.2L20.9,9L21.3,8.9L21.6,8.9L21.7,8.9L21.9,9.1L22.1,9.4L22.2,9.6L22.2,9.8L22.2,10L22,10.8L22,10.9L22,11.1L22.2,11.1L22.5,11.1L22.9,11.2L23.3,11.3L23.6,11.3L23.9,11.2L24.2,11.1L24.4,10.9L24.6,10.7L24.7,10.5L24.7,10.2L24.7,9.8L24.7,9.4L24.7,9.3L24.5,8.9L24.2,8.6L23.8,8.1L23.4,7.8L23.2,7.6L22.9,7.4L22.4,7.2L21.9,7.1L21.4,7L20.9,7L20.7,7L20.2,7L19.8,7.1L19.4,7.2L18.9,7.4L18.4,7.6L18.1,7.8L17.9,8L17.6,8.3L17.4,8.5L17.1,9.2L16.8,9.7L16.6,10.1L16.3,10.8L16.3,11L16.2,11.4L16.2,11.8L16.2,12.2L16.3,12.7L16.5,13.3L16.7,13.6L17,14L17.3,14.4L17.5,14.7L18.1,15.1L18.5,15.3L19.1,15.6L19.5,15.7L20.3,15.9L21.3,16.1L22.1,16.2L22.7,16.2L24.6,16.2L25.5,16.1L26,16L26.5,15.9L27.1,15.7L27.7,15.5L28.3,15.1L28.9,14.7L29.3,14.4L29.6,14.2L29.9,13.9L30.2,13.4L30.4,13L30.8,12.2L31,11.5L31.1,11.1L31.2,10.8L31.2,10.1L31.2,9L31.1,8.4L31,7.9L30.9,7.4L30.8,7L30.3,6.3L30.1,6.1L29.5,5.5L28.7,4.9L28.1,4.4L27.3,3.8L26.6,3.4L26.3,3.2L26.1,3.1L25.8,3L25.6,2.9L25.1,2.9L24.1,2.9L22.1,2.9L21.2,2.9L20.7,2.9L19.8,3.1L19.3,3.3L18.8,3.4L18.4,3.6L17.9,3.9L17.5,4.2L17.2,4.5L16.7,4.9L16.4,5L16.3,5L16.2,5.1L16.2,5L16.1,4.9L15.9,4.8L15.7,4.8L15.5,4.7L15.4,4.6L15.3,4.5L15.3,4.4L15.4,4.2L15.5,4L15.7,3.8L16,3.4L16.1,3.3L16.2,3.2L16.1,3.1L16,3L15.9,2.9L15.4,2.9L14.9,2.8L14.6,2.8L14.5,2.9L14.3,3L14.2,3.1L14.1,3.2L14.1,3.3L14,3.8Z M31.1,16.2L31.2,16.3L31.4,16.3L31.9,16.3L32.6,16.3L33.8,16.2L34.7,16.2L34.9,16.2L35.5,16.2L36.4,16.3L37.1,16.3L37.9,16.2L38.1,16.2L38.2,16.2L38.3,16.1L38.2,16L38.1,16L37.4,15.7L37.1,15.6L36.2,15.1L35.8,14.9L35.4,14.8L34.9,14.7L33.4,14.4L32.9,14.3L32.8,14.3L32.6,14.5L32.4,14.7L32,15.2L31.7,15.5L31.2,15.9L31.1,16.2Z M32.8,3L32.9,3.1L33.3,3.3L33.7,3.6L34.9,4.1L35.4,4.3L35.7,4.5L36.6,5.2L37,5.4L37.5,5.8L38,6L38.8,6.3L39.8,6.5L40.7,6.7L41.8,6.7L42.7,6.7L42.9,6.7L43.3,6.7L43.8,6.7L44.5,6.5L45,6.4L45.6,6.2L45.8,6.1L46.4,5.9L47.1,5.5L47.7,5.1L48.2,4.9L48.6,4.5L48.9,4.2L49.1,3.7L49.3,3.3L49.2,3.2L48.7,3.1L47.4,3.1L46.5,3L46,3L45.5,3.1L45.3,3.1L45,3.2L44.7,3.4L44.5,3.6L44.1,4.2L43.9,4.5L43.6,4.7L43.2,4.9L42.7,5.1L42.3,5.2L41.8,5.3L41,5.3L40.5,5.2L40.1,5.1L39.7,5L39.3,4.8L38.7,4.5L37.8,3.7L37.2,3.3L36.7,3L36.4,2.9L36.2,2.8L35.6,2.7L35.1,2.7L34.1,2.8L33.1,2.9L32.9,2.9L32.8,3Z M33.3,5.8L33.3,6L33.7,6.7L34,7.9L34.1,8L34.3,8.2L35,9L35.1,9.1L35.2,9.2L35.1,9.4L35.1,9.5L34.4,10.4L34.1,11L34,11.3L34,11.5L34.1,11.6L34.3,11.7L34.4,11.7L34.8,11.7L35.5,11.7L36.9,11.7L38,11.8L38.1,11.8L38.4,11.9L38.8,12.1L39.2,12.4L39.8,12.8L40.4,13.4L41.5,14.4L41.9,14.9L42.2,15.3L42.6,15.6L43.2,16.1L43.4,16.3L43.7,16.3L43.9,16.3L46.3,16.3L46.7,16.3L47.3,16.3L47.5,16.2L47.4,16L47.1,15.7L46.7,15.5L46.3,15.3L45.6,15L45.2,14.8L44.5,14.4L43.9,13.9L43.2,13.4L42.2,12.6L41.3,11.9L40.4,11.1L39.2,10.2L38.3,9.4L36.7,8L36,7.4L35.2,6.8L34.8,6.5L33.8,5.8L33.5,5.7L33.4,5.7L33.3,5.8Z M39.9,8.2L39.9,8.3L39.9,8.4L40,8.5L40.2,8.6L40.6,8.9L41.5,9.5L41.8,9.7L42,9.7L42.2,9.8L42.4,9.8L42.9,9.7L43.5,9.6L45.1,9.6L46.9,9.8L47.4,9.8L47.9,9.9L48.1,10L48.3,9.9L48.4,9.9L48.5,9.8L48.5,9.7L48.3,9.5L48.1,8.9L47.9,8.7L47.8,8.6L47.6,8.5L47.1,8.2L46.8,8L46.8,7.9L47,7.8L47,7.7L46.9,7.6L46.6,7.6L46.4,7.6L45.9,7.7L44.7,7.8L42.9,8L41.9,8L41.4,8.1L40.6,8.1L40.1,8.1L40,8.1L39.9,8.1L39.9,8.2Z M45.5,11.7L45.5,11.9L45.6,12L45.7,12.3L46,12.6L46.5,13L46.9,13.3L47.5,13.6L48.3,14.1L48.9,14.3L50.1,14.8L50.8,15L51.7,15.3L52.2,15.5L52.9,15.6L53.9,15.8L54.8,16L56.1,16.1L56.8,16.1L56.9,16.2L57.4,16.2L57.6,16.2L58.3,16.2L58.7,16.1L59.1,16.1L59.9,15.9L61,15.5L62,15.1L63,14.7L64.4,14L65,13.6L65.2,13.4L65.7,13L65.9,12.7L66.1,12.5L66.8,11.2L67,10.7L67.1,10.3L67.2,9.8L67.2,9.4L67.2,9.1L67.1,8.7L67,8.3L66.9,7.8L66.6,7.3L66.4,6.8L66.1,6.4L65.7,5.9L65.4,5.5L65.1,5.3L64.5,4.8L63.8,4.2L63.3,3.8L62.7,3.5L62.4,3.3L61.9,3.1L61.7,3.1L61.3,3L60,2.7L59.7,2.7L59.5,2.7L59,2.7L58.9,2.7L57.5,2.6L56.7,2.7L55.8,2.8L55.3,2.9L54.8,3L54.5,3.2L53.9,3.4L53.5,3.6L52.3,4.5L51.7,5L51.3,5.3L51,5.6L50.9,5.9L50.8,6.1L50.7,6.8L50.7,7.2L50.7,7.5L50.9,8.4L51,9.1L51.3,9.9L51.5,10.2L51.7,10.4L52.1,10.7L52.6,11L53.8,11.6L54.4,11.9L54.7,12L55.1,12.1L55.6,12.2L56,12.2L56.4,12.2L56.8,12.1L57.3,12L57.8,11.9L58,11.8L58.8,11.2L59.5,10.7L59.9,10.2L60.2,9.9L60.3,9.7L60.4,9.4L60.4,9.2L60.5,8.9L60.4,8.6L60.4,8.4L60.3,8.2L60.2,8.1L60,7.9L59.8,7.8L59.5,7.7L59.1,7.7L58.7,7.7L58.2,7.9L57.5,8.1L57.2,8.2L57.1,8.3L57,8.4L57,8.6L57,9L56.9,9.4L56.9,9.6L56.7,9.9L56.6,10.1L56.5,10.2L56.3,10.2L56.1,10.2L55.9,10.2L55.7,10.1L55.3,9.9L54.9,9.6L54.7,9.5L54.4,9.2L53.9,8.7L53.7,8.4L53.6,8.2L53.6,7.8L53.6,7.4L53.7,7.1L53.9,6.7L54.2,6.4L54.4,6.1L54.6,5.8L54.9,5.6L55.4,5.3L55.7,5.1L56.1,5L56.5,4.8L57,4.7L57.8,4.5L59.1,4.4L59.6,4.4L60,4.5L60.3,4.6L60.8,4.8L61.8,5.3L62.5,5.7L63.2,5.9L63.4,6L63.5,6.2L63.7,6.4L63.9,6.6L64.2,6.9L64.5,7.5L64.7,7.9L64.9,8.6L65,9.4L65.1,9.9L65,10.2L64.7,10.8L64.2,11.4L63.8,12L63.4,12.4L63.1,12.7L62.9,12.8L62.1,13.2L61.5,13.5L60.7,13.8L59.8,14.1L59.3,14.3L59,14.4L58.5,14.4L58,14.5L57.5,14.4L56.8,14.4L54.9,14.3L54,14.1L53,14L52.5,13.8L51.6,13.5L50.4,13L49.2,12.4L48.6,12.2L48,12L47.2,11.7L46.5,11.6L46.2,11.6L45.9,11.6L45.8,11.6L45.7,11.6L45.6,11.7L45.5,11.7Z M66.6,15.3L66.6,15.4L66.7,15.4L67.2,15.5L67.9,15.5L68.1,15.6L68.6,15.6L69.1,15.6L70.7,15.6L71,15.6L72,15.6L72.8,15.5L73,15.4L73.1,15.3L73.1,15.2L73,15L72.9,14.8L72.4,14.2L72.4,14.1L72.5,14.1L72.5,14L72.7,14L73,13.9L73.5,13.9L74.6,14L75,14.1L75.4,14.2L76,14.4L76.4,14.6L76.8,14.8L77.2,15.1L77.6,15.6L77.8,15.8L78.1,15.9L78.2,16L78.5,16.1L78.8,16.2L79.3,16.2L79.7,16.2L80.2,16.2L80.7,16.1L81.2,16L81.4,16L81.5,15.9L81.5,15.8L81.5,15.7L81.4,15.7L80.4,14.9L79.9,14.4L79.2,13.8L78.9,13.6L78.2,13.2L77.2,12.7L77,12.6L76.7,12.5L76.4,12.5L76.1,12.4L75.2,12.4L74.7,12.5L73.9,12.6L72.8,12.7L72,12.8L71.7,12.8L71.4,12.9L71.4,13L71.3,13.1L71.3,13.2L70.6,13.3L69.3,13.5L68.5,13.8L68.3,13.8L67.9,13.9L67.8,14L67.5,14.2L67.2,14.4L67,14.6L66.8,14.9L66.7,15.1L66.6,15.3Z M67.1,3L67.2,3.1L68.4,3.5L69.1,3.7L69.4,3.8L70.2,4.2L71.7,4.9L72.8,5.6L73.7,6.2L74.6,6.9L75.7,7.9L77.5,9.5L78.2,10.1L78.8,10.6L79.4,11L79.9,11.3L80.5,11.6L81.1,11.8L81.8,12L82.5,12.2L83.1,12.3L83.7,12.4L84.3,12.4L84.8,12.4L85.3,12.3L85.8,12.2L86.4,12L87.1,11.7L87.5,11.5L87.8,11.3L88.1,11L88.3,10.8L88.5,10.4L88.9,9.8L89.1,9.4L89.2,8.9L89.3,8.6L89.3,8.3L89.3,8.2L89.2,8L89.1,7.8L88.8,7.4L88.6,7.2L88.4,7.1L88.3,7.1L88.1,7.1L87.9,7.1L87.6,7.3L87.4,7.5L87.4,7.6L87.4,7.7L87.4,8.1L87.3,8.3L87.3,8.6L87.1,8.9L86.9,9.2L86.6,9.6L86.3,9.9L85.8,10.2L84.9,10.7L84.5,10.9L84.4,10.9L84.1,11L83.8,11L83.6,10.9L82.3,10.4L81.2,10L80.6,9.7L80.2,9.5L79.9,9.2L79.6,8.9L77.2,6.2L76.2,5.2L76,5L76,4.8L76,4.7L76.1,4.7L77.4,4.6L77.8,4.6L78.3,4.5L78.7,4.4L78.9,4.3L79.1,4.1L79.5,3.7L79.7,3.4L79.8,3.3L79.7,3.2L79.5,3.1L79,3.1L78.6,3.1L78.1,3.1L77.9,3.1L76.8,3.1L73.9,3.1L73.4,3.1L72.2,3.1L71.9,3.1L70.6,3.1L70.3,3L69.5,3L69.4,3L68.5,2.9L67.5,2.9L67.3,2.9L67.1,2.9L67.1,3Z M69.2,6.5L69.2,6.6L69.6,7.3L69.8,7.7L70,8.3L70.1,8.7L70.2,9.2L70.2,9.4L70.1,10L69.9,10.8L69.9,10.9L70,11L70.2,11.1L70.5,11.1L70.8,11L71.5,10.9L72,10.9L75.2,10.7L75.7,10.7L75.7,10.6L75.8,10.6L75.7,10.4L74.6,9.6L73.8,9L72.6,8.2L71.8,7.6L71.3,7.3L70.4,6.8L69.5,6.3L69.4,6.3L69.3,6.3L69.2,6.3L69.2,6.4L69.2,6.5Z M81.4,6L81.4,6.2L81.5,6.5L81.6,6.6L81.7,6.8L81.8,6.9L82,7L82.6,7.4L82.8,7.5L83,7.8L83.2,7.9L83.6,8.1L83.8,8.1L84,8.2L84.2,8.2L84.4,8.2L84.5,8.1L84.6,8L84.7,7.8L84.9,7.3L85,7L85.2,6.7L85.5,6.4L85.9,6L86.3,5.7L86.9,5.4L87.4,5.2L87.9,5.1L88.4,5L89,5L89.5,5L90,5L91.3,5.4L92.2,5.8L92.3,5.9L92.5,6.1L92.6,6.2L92.7,6.5L93.1,7.3L93.2,7.6L93.2,7.9L93.3,8.3L93.2,9L93.2,9.1L93.1,9.4L92.8,10.1L92.3,10.8L92,11.2L91.1,12.1L90.5,12.6L89.8,13.1L89.2,13.5L88.9,13.6L88.2,13.8L87.7,14L87,14.2L86.4,14.3L85.5,14.5L85.2,14.5L85,14.6L84.9,14.7L84.7,14.8L84.7,14.9L84.7,15L84.9,15.1L85.1,15.2L85.7,15.4L86,15.5L86.7,15.6L87.4,15.7L87.8,15.8L88.3,15.8L88.6,15.7L89.1,15.6L89.6,15.4L91,14.8L92,14.4L92.6,14.1L93.2,13.7L97.5,11L98.9,10L101.7,8L103.2,7L104,6.5L105.1,5.8L105.7,5.5L106.3,5.3L106.8,5.1L107.3,5L107.8,4.9L108.3,4.9L108.9,4.9L109.6,4.9L110.1,4.9L110.5,5L111,5.1L111.6,5.3L112.4,5.5L112.8,5.7L113,5.8L113.2,6.2L113.6,6.6L114.6,7.6L115,8.1L115.3,8.5L115.4,8.7L115.5,9.1L115.5,9.6L115.5,10.1L115.3,10.7L115.1,11.4L114.9,12L114.6,12.5L114.5,12.7L114.2,13.1L113.8,13.5L113.5,13.8L113.3,13.9L113,14.1L112.5,14.3L112.1,14.4L111.4,14.5L110.9,14.5L110,14.5L109.7,14.4L108.8,14.3L107.8,14L107.6,13.9L107.4,13.8L107.3,13.7L107.1,13.6L106.9,13.4L106.8,13.1L106.6,12.7L106.6,12.4L106.6,12.1L106.6,11.6L106.6,11.3L106.8,10.8L107.1,10.4L107.1,10.3L107.3,10.1L107.4,10.1L107.5,10.1L107.8,10.2L108,10.4L108.5,11L109,11.5L109.2,11.7L109.4,11.8L109.8,11.9L110,12L110.2,11.9L110.3,11.8L110.3,11.7L110.2,11.4L110.2,11.2L110.4,11.1L110.6,10.9L110.8,10.7L110.9,10.5L110.9,10.4L111,10L110.9,9.4L110.9,9.1L110.7,8.8L110.4,8.4L110.1,8.1L109.9,8L109.6,7.9L109.4,7.8L109.1,7.8L108.7,7.7L108.3,7.8L108,7.8L107.7,7.9L107.3,8L106.9,8.1L106.5,8.2L106,8.5L105.6,8.8L105.1,9.2L104.6,9.6L104.2,9.9L104.1,10.2L104.1,10.5L104,10.7L104,11.6L104,12.3L104.1,12.7L104.1,13.1L104.3,13.5L104.6,14L105,14.4L105.4,14.8L105.9,15.2L106.2,15.3L106.7,15.6L107.1,15.7L107.5,15.8L108.3,16L108.9,16.2L109.3,16.2L110,16.2L110.7,16.2L111.4,16L112.1,15.9L113.1,15.6L113.8,15.4L114.3,15.3L115,15.1L115.3,15L115.6,14.9L115.9,14.6L116.3,14.2L116.7,13.7L117,13.1L117.3,12.5L117.6,11.9L117.7,11.4L117.8,10.8L117.9,10L118,9.1L117.9,8.7L117.8,8L117.7,7.4L117.5,7L117.3,6.5L116.9,6.1L116.5,5.7L116,5.2L115,4.5L114.4,4.1L113.8,3.7L113.1,3.4L112.6,3.3L112.2,3.1L111.5,3L110.8,2.9L110,2.8L108.6,2.8L107.7,2.8L106.6,2.9L105.4,3L104.8,3.1L104.5,3.2L104.2,3.3L103.9,3.5L103.6,3.7L103.2,4L102.7,4.4L102.1,4.9L101.5,5.4L100.5,6.5L99.8,7.2L99.3,7.6L98.1,8.5L97.8,8.8L97,9.1L96,9.8L95.5,10L95.3,10.1L95.1,10.1L94.9,10.1L94.8,10.1L94.7,10L94.7,9.8L95,8.9L95.1,8.3L95.2,7.8L95.3,7.6L95.3,7.3L95.2,7L95.1,6.5L94.9,6L94.7,5.4L94.5,5.1L94.4,4.9L94.3,4.8L93.8,4.3L93.5,4.1L93.1,3.9L92.6,3.6L92.1,3.4L91.5,3.1L91.1,3L90.5,2.8L90.2,2.8L89.4,2.8L89.2,2.7L87.9,2.7L86.8,2.7L86.1,2.8L85.5,2.9L84.7,3.1L84,3.3L83.6,3.5L83,3.8L82.5,4.1L82,4.5L81.8,4.8L81.6,5.2L81.4,5.5L81.4,5.7L81.4,6Z M93.6,16.1L93.6,16.2L93.7,16.2L94.3,16.3L98.9,16.2L99.5,16.2L100.2,16.2L103.1,16.2L103.3,16.2L103.4,16.1L103.4,16L103.3,15.8L102.6,15.1L102.2,14.6L101.8,13.9L101.6,13.6L101.5,13.5L101.3,13.6L101.2,13.6L101.1,13.8L101,14.1L100.9,14.2L100.8,14.2L100.6,14.2L100.3,14.1L99.5,13.9L99.1,13.8L99,13.7L98.7,13.7L98.3,13.8L97.9,14L97.2,14.4L96.5,14.7L93.8,15.9L93.7,16L93.6,16.1Z M95.7,3.1L96.3,3.8L96.6,4.3L97.3,5.4L97.4,5.5L97.5,5.6L97.6,5.6L97.7,5.6L97.8,5.5L98.1,5.3L99.6,3.9L100.3,3.2L100.4,3.2L100.5,3L100.4,2.9L100.1,2.8L99.3,2.8L98.3,2.8L98,2.8L97.3,2.8L97.2,2.8L96.2,2.9L96,2.9L95.9,2.9L95.8,3L95.7,3.1Z M117.4,3.1L117.5,3.3L117.9,3.7L118.4,4.1L119.9,5.2L120.8,5.7L121.2,5.9L121.3,6L121.4,6L121.6,5.9L121.7,5.9L121.8,5.7L121.9,5.5L122,5.1L122,4.6L122,3.8L122,3.5L121.9,3.3L121.7,3.1L121.6,2.9L121.4,2.8L121.1,2.8L120.3,2.8L119.2,2.8L119,2.8L117.9,2.8L117.7,2.8L117.6,2.9L117.4,3L117.4,3.1Z M118.5,16L118.5,16.1L118.6,16.1L118.8,16.2L119.1,16.2L119.5,16.2L120,16.1L120.6,16.1L121,16.1L123.6,16.1L123.8,16.1L124,16.1L124.1,16L124,15.9L123.8,15.7L123.1,15.2L122,14.4L121.5,14L120.7,13.3L120.6,13.2L120.4,13.1L120.3,13.1L120.2,13.1L120.2,13.2L120.1,13.4L120,14L119.9,14.3L119.8,14.7L119.7,14.8L119.6,14.9L119.3,15.2L118.7,15.7L118.6,15.9L118.5,15.9L118.5,16Z M120.6,7.8L120.6,8.1L120.7,8.4L120.8,9.1L120.9,9.3L121.2,9.6L121.9,10.8L122.2,11.3L122.3,11.6L122.5,11.8L122.8,12.1L123,12.4L123.2,12.6L123.5,12.8L123.8,12.9L124.3,13.1L124.5,13.2L124.8,13.2L125,13.2L125.2,13.1L125.5,12.9L125.6,12.8L125.7,12.7L125.7,12.5L125.7,12.2L125.6,11.7L125.6,11.1L125.6,10.9L125.5,10.8L125.4,10.7L124.6,10.4L123.9,10L123.8,9.9L123.8,9.7L123.9,9.5L124.5,9L124.6,8.9L125.1,8.3L125.6,7.8L126,7.2L126.2,6.9L126.3,6.8L126.4,6.1L126.4,5.6L126.4,5.4L126.4,4.9L126.4,4.5L126.3,4.2L126.1,3.9L125.9,3.7L125.8,3.6L125.7,3.6L125.6,3.6L125.4,3.6L125.2,3.8L125.1,4L124.9,4.4L124.5,5.7L124.4,6.1L124.1,6.6L123.9,6.9L123.7,7L123.3,7.3L122.8,7.6L122.6,7.7L122.3,7.8L122.2,7.8L121.9,7.8L121.3,7.5L121.1,7.5L121,7.4L120.8,7.5L120.7,7.5L120.6,7.6L120.6,7.8Z M129.2,8.5L129.2,8.8L129.3,9.3L129.3,10.1L129.3,14.8L129.3,15.6L129.3,15.7L129.3,16.1L129.4,16.2L129.6,16.2L131.8,16.3L132.2,16.3L133.6,16.2L134.3,16.1L134.7,16L134.9,15.9L135.3,15.7L135.6,15.6L135.8,15.5L136.2,15.1L136.3,15L136.3,14.9L136.4,14.8L136.4,14.4L136.4,12.8L136.5,12.1L136.4,11.8L136.4,11.2L136.5,10.9L136.5,9.2L136.5,9L136.5,7.5L136.6,6.7L136.6,6L136.6,5.5L136.5,5.1L136.5,4.4L136.4,4L136.4,3.7L136.3,3.5L136.1,3.3L136,3.1L135.9,3.1L135.7,3L135.5,2.9L135.3,2.8L134.9,2.8L133.7,2.8L133.5,2.7L132.4,2.7L131.2,2.6L130.6,2.6L130,2.6L129.7,2.7L129.5,2.8L129.4,2.9L129.3,3L129.3,3.2L129.3,5.7L129.2,6.2L129.3,6.4L129.3,6.9L129.2,7.1L129.2,8.5Z" fill-rule="evenodd" fill="#202326"/></svg>
