<svg xmlns="http://www.w3.org/2000/svg" viewBox="-1 -1 162.4 43" role="img"><path d="M0,20.2L0.1,17L0.2,13.8L0.2,7.4L0.4,4.8L1,4.2L1.5,3.9L2.2,3.8L3.8,3.5L6.1,3.3L16.8,2.2L45.9,0.5L52,0.4L58,0.4L64.1,0.4L67.1,0.2L70.1,0L89,0L90.9,0.2L92.8,0.3L96.7,0.4L100.5,0.3L104.4,0.3L111.5,0.5L119.4,0.8L133.8,1.7L143.4,2.6L150.2,2.9L154.3,3.2L157.9,3.7L159.1,4L160.4,4.9L160.3,5.8L160.2,6.9L160.1,9.1L160.1,20.3L160,24.9L159.9,27.2L159.9,29.5L160.2,35L160,36.3L159.7,36.7L158.3,37.1L151,38L124.1,39.9L121.1,40.2L107.2,41L69.2,41L67.1,40.8L57.1,40.8L52.7,40.7L47.4,40.5L32.9,39.7L19.3,38.8L16.6,38.7L11.2,38.4L8.1,38.2L5,37.7L2.2,37.2L1,36.8L0,36.4L0,20.2Z M4.6,23.9L4.6,29.7L4.8,30.4L5,30.6L5.3,30.6L5.8,30.4L8.1,28.9L9.4,28.2L10,28L10.7,27.8L11.7,27.7L12.2,27.6L12.7,27.4L13.8,26.2L14.4,25.6L15.1,25.1L15.1,24.9L14.6,24.4L14,24L12.5,23.1L11.1,22.4L10,22L7.1,21.5L6.2,21.4L5.6,21.5L5.1,21.6L4.9,22L4.6,23.9Z M4.6,9.7L4.8,15.5L4.7,16.5L4.7,17L4.9,17.5L5.2,17.8L5.6,18L6.6,18.4L7.6,18.5L8.6,18.6L11.2,18.6L12.2,18.5L13.2,18L14,17.5L14.7,16.8L15.1,16L15.1,15.4L14.8,15L14.4,14.7L13.5,14.1L12.6,13.6L11.8,13L10,11.2L9,10.3L7.9,9.5L6.6,9L5,9L4.7,9.3L4.6,9.7Z M5.9,33.7L6.5,34L7.1,34.2L8.5,34.3L11.1,34.3L12.8,34.5L13.3,34.7L14.1,34.7L16.8,34.6L18.7,34.5L19.7,34.3L20.5,33.9L20.8,33.7L21.1,33.4L21.4,32.6L21.7,31.4L21.7,29.5L21.6,29.4L21.3,29.3L20.8,29.2L18.9,29.3L17,29.5L14.5,29.4L13.6,29.3L13,29.2L12.3,29.2L11.4,29.3L10.7,29.5L10,29.8L9.3,30.2L8.7,30.6L8.5,31L7.8,31.4L7.2,31.9L6.6,32.4L6.2,33.1L5.9,33.7Z M9.8,6.9L10,7.5L10.3,8L10.7,8.5L11.2,9L15.6,12.5L16.1,12.8L16.7,13L17.9,13.1L18.6,13.2L18.9,13.1L19.2,12.9L19.4,12.5L19.5,12L19.4,11L19.2,8.8L19,8L18.8,7L18.6,6.6L18.3,6.3L17.9,6.1L17.3,6.1L15.1,6.4L10.1,6.7L9.8,6.9Z M13.8,21.1L13.8,21.4L14.1,21.5L16.3,21.9L17.3,22.2L18.4,22.8L18.9,23.1L19.3,23.5L19.6,23.9L19.7,24.3L19.7,24.6L19.5,24.9L19.3,25.1L19,25.3L17.6,25.9L16.6,26.5L16.8,26.8L18,27.2L18.7,27.2L19.5,27.1L20.9,26.8L31.4,24L31.7,23.7L31.4,23.2L30.8,22.8L29,21.9L28.2,21.7L27.4,21.5L25.6,21.3L23.8,21.2L22.1,21L19.8,20.6L18.4,20.4L17.3,20.4L14.5,20.6L14.1,20.7L13.9,20.9L13.8,21.1Z M17.4,16.7L17.5,16.8L18.5,17.4L19.7,17.8L21.8,18.4L27.2,19.7L29.1,20L30.3,20.4L30.9,20.6L31.5,20.7L31.6,20.5L31.6,20.1L31.3,19L30.9,18L29.8,15.8L28.6,13.8L28.1,13L27.5,12.3L26,11L24.4,9.8L22.8,8.7L22.5,8.8L22.2,9.2L23,11.9L22.5,14.3L22.3,14.7L21.8,15L21.3,15.1L20.6,15.2L19.3,15.3L18.8,15.4L18.3,15.6L17.7,16.1L17.4,16.5L17.4,16.7Z M23.7,5.6L24.1,6.7L24.3,7L24.6,7.3L26,8.2L27.2,9.2L28.8,10.6L30.5,11.9L31,12.1L31.3,12.2L31.5,12.1L32.5,11.1L33.3,9.9L33.9,8.7L34.1,7.4L34.2,6.3L34.1,5.7L33.9,5.2L33.6,5L33.2,4.9L32.2,4.9L30.8,5.1L27.5,5.1L25.6,5.2L23.9,5.4L23.7,5.6Z M24,29.8L24.1,30.8L24.5,31.3L24.9,31.5L25.5,31.7L26.1,31.7L27.4,31.6L28.6,31.3L31.5,30.6L32.7,30.4L33.8,29.8L34.4,29.3L35.7,28.1L36.4,27.5L36.7,27.3L36.8,27.2L37.1,26.6L36.3,26L35.7,25.8L35.1,25.7L33.9,25.7L32.9,25.9L32,26.2L30.3,26.8L27,28.3L25.3,28.7L24.8,28.9L24.4,29.2L24.1,29.5L24,29.8Z M27.4,35.5L27.4,35.7L28.5,36L29.3,36L33.2,36L33.4,35.9L33.3,35.3L33.1,34.7L32.8,34.2L32.3,33.7L31.7,33.4L31.2,33.5L30.1,34L28.5,34.5L27.8,34.9L27.6,35.2L27.4,35.5Z M31.9,15.8L35.2,21.8L35.8,22.3L36.1,22.4L36.4,21.9L36.4,21.4L36.4,20.9L36.3,20.5L35.9,19.5L35.6,18.6L35.6,18.1L35.7,17.5L36.1,16.5L36.4,16.5L36.8,17.1L37.2,16.6L37.7,15.5L38,14.2L38.1,13.5L38,12.9L37.9,12.3L37.6,11.8L36.7,10.9L35.8,9.7L35.6,9.9L35.4,10.6L34,12.9L32.1,15L31.9,15.8Z M36.7,35.5L36.7,35.8L37,36L37.4,36.2L38.3,36.4L40.1,36.5L49.5,36.4L50.6,36.4L51.3,36.1L51.1,35.7L50.8,35.3L50,34.4L48.3,33.1L45.5,31.3L43,30.2L41.8,29L41.2,29.3L40.7,29.6L40.3,30L40,30.4L39.4,31.3L38.9,32.2L36.7,35.5Z M37.4,5.6L37.4,6.3L37.5,6.9L38,8.2L38.3,8.9L38.7,9.6L39.3,10.3L39.7,10.5L40.1,10.7L40.9,10.3L41.5,9.8L41.8,9.1L42,8.3L42.1,7.5L42,6.7L41.7,5.3L41.4,4.7L41.2,4.5L40.9,4.3L40.2,4.3L39.3,4.4L38.4,4.6L38,4.7L37.7,4.9L37.5,5.2L37.4,5.6Z M39.2,20.7L39.3,21.4L39.4,22.1L39.7,22.8L40.1,23.4L40.8,24L41,24L41.5,23.9L41.9,23.6L42.1,23.4L42.3,23.1L42.5,22.3L42.7,21.5L43.4,20.7L45.2,19L45.4,18.2L45.9,17.6L46.7,17L47.9,16.1L48.7,15.7L49.5,15.5L50.4,15.2L51.2,14.9L51.1,14.7L50.4,14.6L49.7,14.5L48.2,14.6L47.3,14.8L46.5,15.6L46,16L45.4,16.3L44.7,16.6L44,16.6L43.2,16.1L42.9,15.7L42.8,15.4L43,15.1L43.3,14.8L44,14.3L44.7,13.9L45.4,13.2L45.4,12.8L45.8,12.2L46.3,11.2L46.5,10.6L46.6,10.1L46.6,9.5L46.5,9L46.2,8.5L45.7,8.1L45.3,8L44.9,7.9L44.6,8.2L44.4,9.2L44.3,10L44.2,10.8L43.7,11.8L43,12.8L42.4,13.4L41.7,14L40.7,14.9L40.4,15.3L40.1,15.7L39.8,16.7L39.6,17.6L39.4,18.5L39.3,19.9L39.2,20.7Z M45,27.3L45.2,27.8L45.6,28.2L46.7,29L47.9,29.7L49.1,30.4L51.3,32.3L52.9,33.1L52.7,33.7L53.1,34.1L53.7,33.9L54.1,33.5L55,32.6L58.1,30.4L60,28.6L62.9,26.3L64.6,25.6L66.5,24.4L67.1,24.2L67.3,24.1L67.4,23.9L67.4,23.6L67.2,23.4L66.9,23.1L65.1,21.8L64.9,21.9L65.1,22.8L64.7,23.2L64.1,23.2L63.5,23L63,22.7L62.5,22.3L61.8,21.4L61.3,20.6L61,19.9L61,19.5L61.1,19.2L61.3,19L61.7,18.7L62.6,18.4L62.8,18.1L62.5,17.9L61.6,17.8L61.5,17.8L61.1,17.7L60.8,17.6L60.1,17L59.6,16.2L59.3,15.5L59.2,14.7L59.3,13.8L59.5,13L59.8,12.2L60.2,11.5L59.5,11L58.9,10.5L58.3,9.9L58.1,9.2L57.9,8.3L57.8,7.9L57.6,7.4L57.4,7.4L56,9L54.6,10.1L53.7,11.2L54,11.6L55.5,12L56.1,12.3L56.6,12.8L56.9,13.3L57,13.9L56.9,14.7L56.7,14.9L56.4,15L55.7,15.2L54.5,15.4L53,15.8L51.4,16.4L49.9,17.1L49.2,17.6L48.7,18L49,18.3L49.3,18.5L49.7,18.6L50.1,18.6L51.9,18.3L53.2,18.3L54.4,18.6L55.4,19L56.4,19.7L56.8,20.2L57.1,20.6L57.3,21L57.3,21.6L57.3,22L57.1,22.4L56.5,23.2L55.6,23.8L54.7,24.3L52.6,24.9L51,25.3L49.4,25.5L47.2,25.8L46.5,26.1L45.9,26.5L45,27.3Z M45.3,23.3L45.4,23.9L45.9,24L46.2,24L47.3,23.7L52.2,22.4L52.6,22L52.8,21.8L52.9,21.6L52.8,20.9L51.9,20.5L51,20.3L50.2,20.3L49.5,20.4L48.8,20.6L47.5,21.2L46.2,22L45.7,22.5L45.4,22.9L45.3,23.3Z M45.3,4.6L45.8,5L46.3,5.2L46.7,5.5L47.1,6L48,7.4L48.7,8.2L49,8.9L49.5,9.3L50.9,8.4L52.5,7.6L53.6,7.1L54.4,6.6L54.8,5.8L55.2,5.4L55.6,5.2L55.8,5L55.8,4.8L55.7,4.6L55.5,4.2L55.1,4L54.6,3.8L54,3.8L49.9,3.7L47.8,3.8L46.7,4L45.8,4.2L45.3,4.6Z M55.9,36.2L56,36.4L56.3,36.7L56.8,36.9L57.8,37.1L60.9,37.3L64,37.4L65.6,37.3L67.1,37.1L68.6,36.7L69.9,36.1L71.7,34.6L72.4,33.9L72.5,33L72.9,32.5L73.2,31.7L71.6,30.6L70.8,30.4L69.9,30.2L68.3,30.1L67,29.9L65.8,29.6L64.7,29.5L64,29.6L63.2,29.8L61.8,30.6L59.8,32.3L58.9,33.4L56.4,35.5L56,35.9L55.9,36.2Z M60.2,6.7L60.3,7.4L60.5,8L60.8,8.6L61.3,9.1L64.1,11.1L65.9,13.2L66.4,13.5L67.5,13.6L69.3,13.5L69.9,13.6L70.4,13.9L70.9,14.2L71.4,14.4L72.3,14.4L72.9,14.3L73.3,13.9L73.4,13.5L73.4,13.1L73.1,12.6L72.4,11.8L71.7,11.1L69.8,9.3L69.5,8.6L69.4,8.3L69.4,8L69.5,7.7L69.7,7.5L70,7.3L70.4,7.1L72.2,6.8L72.9,7L73.2,6.9L72.9,6L72.6,5.1L72.4,4.7L72.1,4.3L71.6,4L71.1,3.8L68.9,3.6L65.3,3.5L60.9,3.9L60.6,4.1L60.4,5.4L60.2,6.7Z M61.2,14.1L61.5,14.4L62.7,14.6L63.9,14.6L64.5,14.4L62.6,12.5L62.2,12.5L61.2,13L61.2,14.1Z M64.1,18.1L64.4,18.2L65.2,18.3L65.6,18.4L66,18.5L68.6,20.6L69.3,21L70.2,21.4L71.9,21.9L73.2,22L74.1,22.1L74.8,22L75.3,21.7L75.3,21.3L75.1,21L74.6,20.4L73.2,19.4L70.4,16.7L69.4,16.4L68.8,16L68.3,16L67.8,16.2L67,16.6L65.9,17L65.1,17.5L64.5,17.7L64.3,17.8L64.2,17.8L64.1,18.1Z M67.7,26.8L67.9,27L69.6,27.1L72.3,28.1L77.7,27.7L80.1,27.3L81.2,27.2L82.4,27.3L83,27.5L83.1,27.6L83.1,27.7L83,28L82.5,28.3L82.2,28.8L81,29.1L79.3,29.7L78.5,30.1L78,30.6L77.8,30.9L77.8,31.1L77.9,31.4L78.1,31.7L79.7,31.4L81.3,30.9L82.8,30.4L84.3,29.9L85.4,29.8L86.4,29.8L87.3,29.6L87.7,29.4L88,29.2L87.8,28.8L87.6,28.4L86.9,27.8L86,27.2L84.3,26.2L83,25.7L81.8,24.9L81.1,24.6L80.3,24.3L78.7,24L77,23.8L75.4,23.7L71.8,23.8L70,23.7L69.6,23.9L69,25L68.2,25.9L67.8,26.2L67.7,26.4L67.7,26.8Z M73.1,36.6L73.2,36.7L73.4,36.8L74.1,37L79.6,37.3L83.4,37.4L87.4,37.3L93.4,37L93.9,36.7L93.5,35.8L92.8,35L91.1,33.4L90.6,33.3L90,33.3L89.5,33.3L89.1,33.4L88.7,33.6L88,34.2L87,34.8L86.4,35.2L85.6,35.5L84.9,35.7L84.1,35.8L82.6,35.6L82.3,35.1L82.3,33.3L81.9,32.5L80.9,32.6L80.1,32.9L79.8,33.1L79.5,33.3L78.8,33.5L77,33.9L76.2,34L75.4,34.4L73.7,35.6L73.4,35.9L73.1,36.2L73.1,36.6Z M73.5,17.4L75.4,19.2L76.5,20.1L77.5,20.9L79.6,22.1L80.3,22.4L81,22.6L82.6,23.3L83.9,24.1L84.8,24.4L85.4,23.7L85.5,23.3L85.5,22.8L85.4,22.1L85.1,21.2L84.8,20.3L84.3,19.6L83.9,19.3L83.2,19.5L82.4,19.5L81.6,19.4L80.9,19.2L80.1,18.8L79.5,18.4L78.9,17.9L78.5,17.4L78.4,16.8L78.5,16.1L78.7,15.8L79.1,15.7L79.9,15.6L80.5,15.9L82,16.8L83.3,18L83.7,17.7L82.7,12L81.6,9.8L80.7,7.4L80.4,6.3L80.3,5.8L80,5.3L79.5,6.1L78.3,6.7L77.9,7.1L77.7,7.5L77.4,7.9L76.9,8.2L75.7,8.6L75,8.8L74.5,9.1L75.3,10.9L76.9,13L77.1,13.5L77.2,14L77.1,14.5L77,15L76.6,15.9L76,16.7L75.5,17L74.8,17.1L73.8,17.1L73.5,17.4Z M82.9,3.8L82.9,4.1L83.3,5.2L83.5,6.2L83.5,6.8L83.6,7.3L83.9,8.2L84.1,8.3L84.7,8L85.1,7.6L85.9,6.6L87.5,5.4L87.7,5.1L88,4.6L88.1,4.4L88.1,4.1L88,3.9L87.7,3.8L86.2,3.6L83.3,3.6L83,3.6L82.9,3.8Z M84.6,32.7L84.8,33L85,33.2L85.9,32.9L86.6,32.5L87.2,31.9L87.7,31.3L86.8,31.3L85.9,31.3L85.4,31.4L85.1,31.5L84.8,31.8L84.7,32.1L84.6,32.7Z M85.4,10.1L85.4,10.8L85.5,10.9L86.2,10.9L86.5,11.3L86.7,11.5L86.7,11.7L86.1,12.4L85.7,12.7L85.5,13.1L85.4,13.7L85.6,15L86.2,16.4L86.3,18.6L87.1,20.7L87.2,21.7L88.1,23.1L88.8,24.8L88.9,25.5L89.2,25.8L89.7,25.9L90.8,26L91.2,25.6L91.3,24.7L92.4,22.7L92.8,22.4L94.2,20.2L95.4,18L95.9,17.1L96.3,15.9L96.7,14.8L96.8,14.2L96.8,13.6L96.4,13.2L95.9,13.4L95.6,13.6L94.9,14.5L94.1,15.6L93.5,16.1L92.7,16.4L91.8,16.5L91.4,16.4L91,16.3L90.6,16.1L90.4,15.8L90.3,15.6L90.2,15.3L90.2,14L89.9,12.4L89.7,11.5L89.6,10.7L89.6,10.3L89.7,10L90,9.4L90.3,8.8L90.4,8.4L90.4,8.1L90,8L88.8,8.6L88.1,8.8L87.4,8.9L86.7,8.7L85.9,9.3L85.6,9.6L85.4,10.1Z M91.5,5.8L92.3,6.9L92.6,7.9L92.6,8.3L92.5,8.8L92.3,9.6L92,10.5L92,10.9L92,11.3L92.6,13.3L92.8,13.3L93.1,13L93.4,12.6L93.6,12.2L93.9,11.9L95.1,10.9L96.2,10.5L96.8,10.5L97.5,10.5L98.2,10.4L98.4,10.2L98.6,10L99.2,8.1L100.7,6.5L100.9,6.1L101.4,5.3L101.6,4.8L101.7,4.4L101.7,4.1L101.5,3.9L101,3.7L100.5,3.6L99.2,3.5L97.5,3.5L96.1,3.5L94.2,3.5L93.3,3.6L92.5,3.9L91.8,4.3L91.6,4.5L91.5,4.8L91.5,5.8Z M93.3,28.3L93.5,28.4L95.2,28.3L97,28.2L100.3,27.7L101.9,27.4L102.8,27.1L103.1,26.9L103.3,26.6L103.3,26.4L102.9,26.2L101.2,26.2L100.3,26.1L99.3,26L98.8,25.8L98.4,25.6L98.1,25.3L97.9,25L97.9,24.8L98,24.6L98.3,24.3L100.7,22.9L102.7,21.1L102.7,20.8L102.4,20.7L101.9,20.9L101.9,21L100.9,21.5L100,21.8L100,21.5L100.2,21L100.5,20.5L100.9,20L101.4,19.7L102,19.5L102.7,19.4L103.9,19.3L105,19.2L105.5,19.1L106.1,18.8L106.7,18.2L106.7,17.8L106.6,17.4L106.4,17.1L106.1,16.9L105.2,16.8L104.2,16.7L103.5,17.1L103.8,16.1L103.5,15.1L104.1,13.6L104.2,13.2L102,11L100.6,11.2L99.4,10.8L98.9,10.8L98.6,10.9L99.1,12L99.1,14.2L98.9,14.9L98.7,15.7L97.9,17.1L97.1,18.5L96.3,19.9L95.7,21.7L94.8,23.4L94.4,24.9L93.7,26.6L93.4,27.4L93.3,28.3Z M94.3,31.1L94.5,31.6L94.7,31.8L94.9,31.9L95.2,31.9L95.4,32.1L95.6,33.9L96.3,35L96.8,35.6L97.4,36.1L98,36.5L98.6,36.8L99.3,37L100,37.1L101.9,37L105,37.2L105.9,37.3L107.5,37.2L112.6,37L113,36.9L113.3,36.7L113.9,36.2L115.2,35.5L116.1,34.7L117.6,33.9L118.7,33.2L119.1,32.8L119.5,32.4L120.6,31.5L121.8,30.7L122,30.2L122.4,29.9L122.4,29.8L122,29.5L121.8,29.5L121.4,29.5L120.2,29.3L118.8,29.1L117.7,28.8L116.8,28.3L115.6,27.6L115.1,27.2L114.9,26.7L114.8,26.2L114.8,25.6L114.8,24.6L114.7,24L114.4,23.6L113.5,22.6L112.5,21.8L111.4,20.9L110.5,20L110.2,20L109.4,20.4L108.7,20.9L107.5,21.8L106.5,22.3L105.1,22.9L103.2,23.5L102.5,24.1L102.7,24.3L103.4,24.6L104,24.7L105.4,24.9L107.5,25.4L109.2,26.5L109.3,26.7L109.1,27.2L108.7,27.6L108.3,27.9L107.7,28.1L106.5,28.5L105.4,28.8L102.3,29.8L100.8,30.2L99.2,30.5L98,30.5L96.7,30.4L96,30.5L95.3,30.6L94.7,30.8L94.3,31.1Z M103.9,10.3L106.1,11.2L106.5,11.6L106.8,12L107,12.6L107,13L106.7,13.7L106.6,14L106.5,14.4L106.8,14.5L112,14.2L113.9,14.3L114.8,14.4L115.7,14.3L115.9,14.1L115.9,13.8L115.2,12.9L114.6,12L114.4,11.5L114.4,11L114.4,10.4L114.6,9.9L115.1,9.3L115.8,8.8L116.4,8.6L116.7,8.4L116.9,8.1L116.9,7.8L116.9,7.5L116.7,6.8L116,5.5L115.3,4.7L114.8,4.4L114.2,4.1L113.5,4L112.8,3.9L111.3,3.9L110,3.9L109,3.9L108,4L107,4.2L106,4.5L105.2,4.9L104.6,5.5L104.4,5.8L104.2,6.2L104.1,6.6L104.1,7.1L104.2,7.4L104.6,7.7L105.4,8.2L105.4,8.4L105.1,8.8L104.8,9.2L104,10L103.9,10.3Z M112.8,17.7L113.2,18.3L113.7,18.9L114.8,20L115.9,20.9L117.1,21.7L118.5,22.4L119.9,23L122.8,24L125.7,25.1L126.9,25.7L127.3,25.7L127.5,25.6L127.7,24.9L127.8,24.2L127.8,23.5L127.8,22.8L127.6,22.3L127.3,21.9L126.8,21.5L126.3,21.2L121.5,18.9L120.3,18.5L117.4,18L115.4,17.4L114.2,17.1L113.1,17L112.9,17.1L112.8,17.7Z M117.5,25.7L117.5,26.6L118.3,27L121,27.6L122.9,27.9L123.7,28L124.4,28L125.2,27.7L124.8,27.4L124.4,27.2L123.2,26.8L121.2,26.3L119.6,25.7L118.8,25.5L118,25.4L117.7,25.4L117.5,25.7Z M119.1,13.1L119.2,14.8L119.5,15.8L119.7,16.1L120,16.4L120.7,16.9L121.6,17.2L122.5,17.5L123.4,17.7L124.9,18.8L127.3,19.6L127.7,19.2L127.6,18.2L127.5,17.2L127,15.2L124.9,9L124.3,7.1L124,6.3L123.8,5.6L123.4,5.1L122.8,4.8L121.9,4.6L120.7,4.6L120.3,4.9L119.6,7.1L119.5,7.7L119.6,8.5L119.8,9.5L121,10.6L121.3,11.5L121.3,12L121.2,12.4L120.8,12.6L120.3,12.8L119.6,12.8L119.3,12.9L119.1,13.1Z M119.5,36.3L120.5,36.5L121.6,36.6L122.7,36.5L123.8,36.4L126,36.1L128.1,35.9L130.1,35.9L131.5,35.8L132.6,35.5L132.8,35.3L131.8,34.6L131.4,34.3L131.1,33.8L130.3,32.1L129.8,31L129.4,30.6L129,30.3L128.5,30.8L127.8,31L126.9,31.2L126,31.5L125.3,31.8L123.2,33.6L121.8,34.5L119.5,36.3Z M127,5L127.5,6.1L127.7,7.3L128.1,8L128.3,8.6L128.3,9L128.4,9.3L128.7,9.8L128.9,9.9L130.1,9.7L131.2,9.2L131.7,8.9L132.1,8.5L132.4,8.1L132.6,7.6L132.6,7L132.5,6.3L132.1,5.1L132,5L131.8,4.9L131.3,4.8L130.5,4.7L127.1,4.8L127,5Z M129,14.2L129.1,16.7L129.2,17.9L129.4,19.1L129.9,20.7L130.1,21.2L130.1,21.5L130.1,22.4L129.8,22.5L129.7,22.3L129.5,23L129.4,23.7L129.5,24.4L129.7,25.1L130,25.1L130.5,24.8L130.9,24.4L131.7,23.4L132.7,21.4L133.7,19.9L134.6,18.5L134.9,17.8L135.1,17.1L135.1,16.3L135,15.4L134.7,14.8L133.8,14.3L133.4,13L133.4,12.5L133.7,11.8L134,10.8L134,10.2L133.8,10L132.5,10.4L130.9,11.3L130.2,11.8L129.6,12.4L129.2,12.8L129.1,13.2L129,13.7L129,14.2Z M131.7,26.3L132,26.5L136.3,26.8L139,26.9L141.2,27L143.9,26.8L145.3,26.6L146.6,26.3L148.6,25.6L149.8,25.1L150.3,24.8L150.6,24.5L151,23.6L149.4,23.1L147.7,22.7L142.3,21.2L140.8,21L138.8,21.4L136.8,22L135.8,22.4L134.9,22.8L134.1,23.3L133.4,23.9L132.8,24.4L132.3,25L131.9,25.6L131.7,26.3Z M132,30.6L132.7,31.5L133.3,32.2L133.8,32.7L135.2,33.3L136.2,34.4L136.6,34.4L137.3,34L137.3,33.7L137,33.4L136.6,33L135.6,32.2L134.2,31.2L133.7,30.9L133.2,30.7L132.6,30.6L132,30.6Z M135.5,6.1L136,9.6L136.3,11.4L136.5,11.8L137,12.5L137.3,12.5L138.6,11.7L141.3,10.3L142.3,9.7L143.6,8.8L143.9,8.4L143.9,8L143.3,6.6L142.8,6.1L141.6,5.8L137.6,5.6L136.1,5.6L135.7,5.8L135.5,6L135.5,6.1Z M135.6,29.1L135.7,29.4L135.9,29.5L136.8,29.8L138.5,30.4L142.3,31.3L143.7,31.8L144.4,32L145.2,32L145.1,31.7L145.3,31.2L144.4,30.6L143.8,30.3L143.3,30L141.4,29.7L140.5,29.4L138.7,29.4L137.1,29.2L136.2,29L135.9,28.9L135.6,29.1Z M136.8,18.7L137.2,19.5L138.2,19.5L139.2,19.4L140.1,19.2L141,18.9L141.8,18.6L142.6,18.1L144.1,17.1L144.9,16.5L145.7,15.8L146.3,15L146.8,14.2L145.2,12.7L145.1,12.4L144.6,11.4L144.4,11.2L143.1,11.6L142.2,12L141.2,12.8L139.6,14.1L138.9,15.6L137,18.1L136.8,18.7Z M140.8,33.2L141.1,34.1L141.4,34.5L141.8,34.7L142.2,34.7L142.7,34.8L144.7,34.6L145,34.5L144.9,34.3L144.3,33.8L143.5,33.3L142.6,32.9L142.1,32.8L141.6,32.8L140.8,33.2Z M145,29.3L145.9,30.1L148.1,30.9L148.6,31.3L149.2,31.9L149.5,32.5L149.6,32.8L149.5,33.1L148.8,33.9L148.8,34.1L149,34.3L149.9,34.3L150.7,34.3L151.6,34.1L152.4,33.9L154,33.3L155.5,32.7L155.7,32.6L155.8,31L155.9,29L155.9,27.9L155.7,26.9L155.4,25.9L154.9,25.1L154.3,25.1L153.9,25.3L153,25.7L151.5,27L150.3,27.7L148.9,28.2L146.8,28.5L145.8,28.8L145.4,29.1L145,29.3Z M146,19L146.1,19.2L147.2,19.9L147.6,20.1L148.1,20.2L149.8,20.4L153.6,21L154.2,21.1L154.7,21L155.2,20.8L155.6,20.5L155.9,20.1L156,19.6L156,18.7L155.9,11.6L155.6,9.3L155.5,8.9L155.3,8.6L155.1,8.5L154.6,8.4L154.1,8.5L153.8,8.8L153.5,9.2L152.6,11.4L151.1,13.6L150.8,14.2L150.8,14.4L150.6,14.7L149.9,15.4L148.9,16.2L147.8,17.2L146.8,17.9L146,19Z M146.4,6.8L146.9,7.8L147.2,9.5L147.5,9.9L148,10.2L148.5,10.4L148.8,10.3L149.1,10.2L150,9.6L150.5,8.9L150.8,8.1L151,7.3L151,6.6L150.7,6.4L149.6,6.3L148.5,6.2L147.5,6.3L146.4,6.5L146.4,6.8Z" fill-rule="evenodd" fill="#202326"/></svg>
