<svg xmlns="http://www.w3.org/2000/svg" viewBox="-1 -1 162.4 43" role="img"><path d="M0,18.3L0.1,18.2L0.7,15.7L1.1,14.5L1.6,13.5L2.4,12.6L3.2,11.8L4.1,11.2L5,10.7L6.9,9.9L8.6,9.4L12.4,8.4L16.6,7L20.7,5.4L24.8,3.6L26.7,2.8L28.8,2L31,1.4L33.2,0.9L35.3,0.5L37.5,0.1L37.6,0L120.3,0L120.8,0.3L121,0.3L121.6,0.3L123,0.4L126.4,1L128,1.4L129.7,1.9L133.4,3.2L137.1,4.6L140.8,6.1L144.5,7.4L147.6,8.2L150.9,9.1L152.5,9.7L154.2,10.3L155.7,11.1L157.2,12L158.1,12.8L158.8,13.9L159.4,15.1L159.8,16.4L160.2,18.5L160.4,18.8L160.4,21.2L160.2,21.5L160,22.9L159.7,24.3L159.2,25.7L158.5,26.9L158.1,27.4L157.6,27.8L156.5,28.6L155.4,29.2L154.2,29.7L152.8,30.1L147,31.8L141.3,33.8L135.6,36L132.1,37.6L129.3,38.7L126.5,39.6L123.7,40.4L122.3,40.6L120.8,40.8L120.7,41L35.6,41L35.2,40.7L35,40.6L34.6,40.6L33.6,40.5L32.3,40.2L30.8,39.7L28.3,38.8L24.5,37.1L20.7,35.4L17,33.7L13.1,32.1L5.3,29.4L4.4,29.1L3.7,28.6L3,28.1L2.2,27.5L1.6,26.8L1.2,25.9L0.8,25L0.4,24L0.2,22.9L0,22.5L0,18.3Z M13,18.7L13,19.2L13.5,20.3L14.2,21.4L15.4,22.9L15.8,23.4L16.3,23.9L16.8,24.3L17.4,24.6L18,24.8L18.6,25L19.2,25L19.7,24.9L20.9,24.4L21.9,23.4L22.9,22.2L24.6,19.6L24.7,19.4L24.5,19.1L24.3,19.1L23.7,19.4L23.1,19.5L22.8,19.9L22.2,20.4L21.7,20.7L21.1,20.7L20.4,20.4L19.9,20.2L19.8,20L19.7,19.8L19.2,19.3L18.4,18.6L17.5,18.1L16.5,17.8L15.5,17.7L15,17.7L14.2,17.7L13.8,17.8L13.4,18L13.1,18.3L13,18.7Z M20.9,29.4L21,29.7L21.3,30.3L21.8,30.7L22.1,30.9L23.8,32.1L25.3,33L26.7,33.8L28.5,34.6L29.9,35.2L30.3,35.2L30.5,34.9L30.7,34.5L30.8,34L30.8,33.6L30.6,33.3L30.7,32.6L30.4,31.3L30.3,29.2L30.4,26.5L30.5,26L30.6,25.6L30.6,25.3L30.5,24.9L30.4,24.9L29.9,25.6L29.5,25.8L28.8,27L28.5,27.5L28.3,27.8L27.4,28.5L27,28.7L26.6,28.9L26.3,28.9L25.9,28.7L26,27.9L26.1,27.7L26.5,26.7L26.4,26.5L26.2,26.5L26.1,26.6L25.8,26.8L25.1,27L24.4,27.5L23.9,27.8L23.4,27.9L22.3,28.1L21.9,28.2L21.5,28.4L21.2,28.7L20.9,29.1L20.9,29.4Z M21.2,11.7L21.3,12.1L21.5,12.5L21.7,13L21.8,13.7L21.8,14.1L21.9,14.5L22.2,15.1L23.4,16.8L23.7,17.2L23.7,17.1L23.9,17.5L24,17.5L24.1,17.6L24,17.8L24.1,17.8L24.6,17.5L25.5,16.7L25.6,16.6L25.6,16.5L25.6,16.4L25.6,16.2L26.2,15.4L26.6,15.3L27.3,14.4L27.2,14L27.2,13.3L27.4,12.9L27.7,12.5L28.1,11.8L28.1,11.6L27.7,11.2L27.2,11L26.8,10.8L26.3,10.6L26,10.2L25.9,9.7L25.7,9.2L25.4,8.9L24.9,8.6L24.4,8.5L23.9,8.6L23.5,8.8L22.5,9.5L21.7,10.3L21.2,11.1L21.2,11.7Z M23.4,23.3L23.7,23.4L24,23.3L24,23.4L24,23.5L24.2,23.3L24.7,22.9L25,22.9L25.9,22.6L27.5,21.9L28.7,21.2L29.9,20.2L31,19.1L32,17.9L33.1,16.1L33.5,15.4L34.6,14L35.1,13.3L35.6,12.4L35.2,12.2L34.9,12.3L34.6,12.5L34.2,13.1L33.9,13.8L33.5,14.5L33.2,14.1L32.9,13.7L32.4,13.5L32,13.2L31.8,13L31.5,13L31.2,13L31.2,13.1L31.2,13.3L31.1,13.5L30.9,13.6L30.3,13.6L30.1,13.4L30,13.3L30,13.2L29.7,13.4L29.1,14L28.6,14.7L27.8,16.3L26.6,18.1L26.1,19.1L25.3,20.4L25.2,20.9L24.6,21.6L24.4,22.4L24.2,22.6L24.1,22.6L24,22.6L23.8,22.6L23.6,22.9L23.5,23L23.4,23.3Z M28.5,7.1L28.6,7.3L28.8,7.6L29.2,8.1L30.5,8.7L34,9.1L36.2,9.3L38.2,9.6L40.8,10.2L42.6,10.8L43,10.7L43.8,11.4L44,11.4L44.1,11.3L44.1,11L43.9,10.7L43.8,10.6L43.6,10.6L43.4,10.4L42.5,7.7L41.2,6.1L41,5.6L40.7,5.2L40.5,5.2L40.3,5.1L40.1,4.6L39.8,3.7L39.6,3.4L39.3,3.2L38.3,3.1L37.4,3.2L35.6,3.7L32.7,4.1L30.2,4.8L29.6,5.1L28.6,6.9L28.5,7.1Z M33.9,35.9L34.1,36.4L34.4,36.8L34.8,37.3L35.3,37.5L38.9,37.8L40.1,37.8L40.6,37.7L40.8,37.4L40.9,37L40.8,36.6L40.6,36.2L40,35L39.8,34L39.3,32.3L38.7,30.6L38.1,29.4L37.3,28L36.1,25.9L35.6,24.9L35.1,24.1L34.8,24L34.7,24.3L34.7,24.4L35.4,26.9L35.6,27.8L35.5,30.2L35.6,30.5L35.6,30.6L35.8,30.2L35.9,30.1L35.7,31.1L35.4,32.1L35.4,32.5L35.4,32.8L35.4,33L35.2,33.3L35,33.7L34.9,33.9L34.6,34L34.3,34.4L34,34.7L33.9,35.1L33.9,35.9Z M36.5,18.5L36.7,19.1L37.2,20.3L37.8,21.5L38,21.6L38.1,21.6L38.5,22.5L38.7,22.9L38.7,23.2L38.7,24.2L38.9,25.2L39.3,26L39.8,26.6L40.5,27.1L40.7,27.2L40.9,27.1L41.3,26.7L41.7,26.2L41.9,25.8L43.8,21.1L44.1,20.6L44.3,20.4L44.6,20.3L44.9,20L45.8,18.6L45.9,18.2L45.9,17.9L45.7,17.1L45.8,16.1L45.6,15.5L45.3,14.9L44.9,14.4L44.5,14.1L43.8,14L43.3,13.6L42.3,13.4L41.1,12.8L42.2,13.3L42,13.5L42.1,13.8L41.7,13.5L42.2,13.9L41.6,13.9L41.6,13.8L41.4,13.7L40.3,13.4L39.8,13.4L39.2,13.4L38.5,13.5L38,13.8L37.7,14.1L37.5,14.6L37.2,15.7L36.9,16.3L36.8,16.3L36.8,16.2L36.5,17.8L36.5,18.5Z M41.3,30.4L41.4,30.8L41.6,31.3L43.3,34.2L43.9,35L44.2,35.3L44.6,35.6L44.8,35.6L45,35.4L45.4,35.1L45.7,34.9L46.1,34.4L46.4,33.6L46.4,32.9L46.5,32.7L46.7,32.8L46.9,33.2L47.1,33.2L47.5,32.3L47.5,32L47.4,31.8L47.6,32L47.7,32.1L47.7,32L47.4,30.9L46.9,30.2L46.6,28.8L46.6,28L46.7,27.4L46.8,27.1L46.7,26.8L46.6,26.4L46,27.1L46.3,27.6L46.2,27.8L45.9,27.6L45.6,27.5L44.7,27.6L43.4,28L42.8,28.3L42.2,28.8L41.7,29.4L41.3,30.2L41.3,30.4Z M42,3.2L42.1,3.9L42.2,3.9L42.5,4.4L42.7,4.9L43.4,6.3L44.3,7.7L44.7,8.5L45,9.5L45.1,10.1L45.1,10.7L45,11.9L45.4,12.3L47,13.2L47.2,13.1L47.4,13L47.7,12.3L48,11.3L47.9,8.8L48.1,7.3L48.2,6.8L48.3,6.5L48.7,5.5L49,4.1L49.2,3.8L49.4,3.6L49.8,3.2L49.9,3L49.7,2.6L49.7,2.4L47.7,2.6L42.8,2.7L42.3,2.8L42,3.2Z M45.5,37.6L46.4,37.6L47.3,37.7L49.2,38L53,38.8L54.9,39L55.8,39L56.7,39L57.6,38.8L58.5,38.5L59.3,38.1L60.2,37.5L60.2,37.3L59.2,35.8L58.8,35.4L58.3,35L56.9,33.7L55.8,32.5L55.6,32L55.6,31.9L55.3,31.8L55.3,31.3L55.1,30.9L54.9,30.4L54.6,30.2L54.4,30.4L54.5,31.8L54.6,32.8L54.5,32.9L54.4,32.8L53.7,31.9L53.6,31.7L53,31.1L52.8,31.5L52.6,31.1L52.7,31.2L52.6,30.7L51.8,29L51.4,27.9L51.3,27.4L51.3,27.2L51.1,27L50.8,27.5L50.7,28L50.6,29.2L50.3,30.8L50.4,32.1L50.4,32.7L50.3,33L50.1,33.2L49.7,33.4L49.5,33.5L49.3,33.4L49.1,33.2L49,32.9L48.7,32.8L48.6,32.8L48.5,32.8L48.1,33.2L48,33.4L48,33.5L47.9,33.9L47,35.2L45.9,36.4L45.8,36.8L45.8,37.1L45.7,37.3L45.7,37.4L45.7,37.5L45.9,37.6L45.5,37.6Z M50.2,2.9L50.2,3.1L50.3,3.4L50.2,3.7L50.2,4.2L50.3,4.7L50.5,5.2L50.7,5.6L51,6L51.2,6.2L51.6,6.2L51.8,6.1L52,5.8L52.4,5.2L52.8,3.8L52.8,3.4L52.7,3.1L52.5,2.8L52.3,2.7L50.3,2.7L50.2,2.9Z M54.6,11.5L54.8,11.8L55.1,11.7L55.4,11.2L55.6,10.8L55.7,10.7L55.8,10.6L56.1,10.2L57.1,9.8L57.7,9.7L58.3,9.4L59.1,8.8L61.2,6.8L63.3,4.7L63.2,4.4L63,4.1L62.8,3.9L62.6,3.8L62.3,3.5L61.8,2.8L57.6,2.8L57.2,2.8L57,3L56.7,3.3L56.5,3.7L56.3,5.1L56.6,5.8L56.7,6.3L56.6,6.3L56.5,6.3L56.5,6.6L56.5,7.3L56.6,7.6L56.6,7.9L56.5,8.5L56.4,8.8L56.2,9.1L55.9,9.4L55,10.7L55.1,10.6L54.8,11L54.6,11.5Z M56.8,17.3L57,17.9L57.2,18.3L57.5,18.7L57.9,19L58.8,19.4L59.5,19.7L61.1,20.6L62.3,21.1L62.9,21.3L63.5,21.6L64.5,22.3L65.9,23.5L66,23.5L66.4,23.3L66.3,23.2L66.7,23.6L66.9,22.9L66.9,22.2L66.8,21.5L66.6,20.8L66.3,20.4L66.1,19.6L65.6,19.1L65,18.3L64.7,17.9L64.4,17.4L64.3,16.9L64.2,16.3L64.3,16.1L64.6,16L64.8,16.1L64.9,16.2L65,16.2L65.2,16.1L65.9,15.6L65.9,15.4L66.3,15.2L66.4,15.4L66.7,16.6L66.9,18.5L67.5,20.1L67.8,21.6L68,23.3L67.9,25.2L67.9,25.7L68,26.2L68.2,26.6L68.5,26.8L68.7,26.9L69,27L69.6,26.8L70.1,26.6L70.7,26.4L72.1,26.2L72.5,25.9L73,26.1L73.1,25.9L73,25.7L73,25.9L72.6,25.4L72.1,24.4L71.8,23.3L71.6,22L71.6,21.4L71.6,21L71.6,20.1L71.4,17.9L71.6,15.6L71.3,12.8L71.2,12.4L71.2,12.3L71.1,12.4L71,12.5L70.8,12.4L70.6,11.8L70.4,11.1L70.3,10.6L70.2,10.1L69.7,9.2L68.9,8.4L68.4,8.5L67.9,8.5L67.4,8.5L66.9,8.7L65.5,9.4L64.2,10.3L63,11.4L61.4,12.5L60.4,13.5L59.6,14.2L59.2,14.6L58.8,15.1L58.4,16.1L56.8,17.3Z M57.7,24.9L58.4,28.1L58.9,29.3L59.5,30.5L60,31.3L61.3,33.1L61.5,32.8L61.6,32.3L62.3,31.6L62.8,30.8L63.4,30.5L64.3,29.6L64.9,29.2L65.6,28.8L65.8,28.5L66.1,28.2L66.2,27.8L66.3,27.3L66,27.1L66.1,27L65.9,26.4L65.6,26L65.2,25.6L64.5,25L63.7,24.6L62.7,24.3L61,24L58.6,23.9L58.1,24.2L57.8,24.5L57.8,24.7L57.7,24.9Z M62.5,34.4L63.3,35.4L64.2,36.1L65.2,36.6L66.2,36.8L67.3,36.7L68.4,36.5L69.4,36.2L70.4,35.7L72.3,34.5L76.6,30.9L76.6,30.8L76.6,30.6L76.6,30.5L76.3,30.5L75.7,30.4L75,30.2L74.7,30L74.5,29.8L73.7,29.4L71.9,28.7L71.2,28.6L70.6,28.6L69.3,28.8L68,29.3L66.8,30.1L63.1,32.8L62.8,33.3L62.5,34.4Z M70.7,3.6L70.8,4L71.9,7.9L72,8.3L72.2,8.5L72.4,8.4L73.7,7.5L74,7.1L74.1,7.1L74.3,7.5L74.4,8.2L74.5,8.9L74.8,9.5L75.7,11.2L77,13.1L77.4,14.1L77.7,15.4L77.8,17.4L77.8,17.8L78,18.6L78.3,18.8L78.5,18.6L78.6,17.1L79,16.1L79.2,14L79.1,12.7L79.1,12.3L79,12.1L78.7,12.1L78.6,11.5L78.6,10.3L78.8,9.7L79.2,9.2L79.8,8.5L79.8,8.1L80.2,7.2L82.4,4.1L83.2,3.2L83.4,3.2L83.3,3.5L83.5,3.2L83.1,2.8L82.8,2.7L82.4,2.7L81.3,2.8L71.3,2.8L71,3L70.8,3.2L70.7,3.6Z M72.6,37.5L72.9,37.8L73.1,37.8L73.4,37.7L73.7,37.6L74.7,38.6L75.3,39.1L75.6,39.2L75.8,39.2L76.5,39L77.6,38.7L79.3,38.3L81.9,38L85.6,37.8L85.9,37.8L86.1,37.6L85.9,37.2L85.8,37.2L85.3,37L85,36.6L85,36.5L85,36.4L85.3,36.3L85.5,36.3L85.6,36.2L85.4,36L83,35.2L82.7,35.2L82.6,35.3L82.3,35.5L82,35.6L81.9,35.6L81.7,35.6L81.4,35.2L81.1,33.7L80.8,33L80.6,32.7L80.4,32.6L79.9,32.5L79.5,32.6L79,32.8L78.6,33.1L78,33.9L77.3,34.5L76.5,35.5L75.3,36.4L75.1,36.4L75.1,36.1L74.9,36L74.3,36.5L73.4,37L73.1,37.1L72.6,37.5Z M83.4,14.6L83.6,14.9L83.9,14.8L84.1,14.5L84.2,14.4L84.2,14.3L84.6,13.6L85.2,12.7L85.3,12.3L85.4,12L85.5,11.7L85.8,11.4L86.3,11.1L86.8,10.9L87.3,10.6L87.8,10.3L88.4,9.3L88.8,8.3L89,7.7L89.2,7.2L89.2,7L88.9,7.2L88.8,7.2L89.1,6.4L89.4,5.9L89.8,5.6L90.7,5.1L91.2,4.8L91.6,4.5L91.9,4.1L92.2,3.5L92.1,3.3L92.2,3.2L92.1,3.1L91.9,2.9L91.4,2.8L86.4,2.8L84.8,3L84.3,3.2L83.9,3.6L83.7,4L83.7,5.3L83.6,5.6L83.7,6.7L83.8,6.8L83.9,7.3L84.2,8.7L84.5,9.7L84.6,10.2L84.7,10.7L84.5,12.2L84.3,12.8L84.1,13.2L83.6,14.2L83.4,14.6Z M86.1,29.8L86.1,30L86.3,30.4L86.7,30.7L87,30.9L87.4,31.3L88.3,32.6L89.2,34.1L89.9,35.8L90.2,36.7L90.4,37.6L90.5,37.8L98.5,37.8L99.1,37.8L99.5,37.4L99.4,37.1L98.8,37L97.5,35.9L94.9,34.3L90,30.9L89,30.3L88,29.8L87.5,29.6L87.1,29.5L86.6,29.6L86.1,29.8Z M86.7,21.9L86.7,22.1L86.9,22.2L89.5,21.4L90.4,21L90.8,20.7L91.1,20.4L91.4,20.2L91.8,20.2L92.7,20.7L92.8,20.9L92.8,21.1L92.1,21.2L92.8,21.1L92.7,21.3L92.9,21.5L93.4,21.4L93.8,21.6L94.6,21.6L96.8,22L97.8,22.1L98.1,22.1L98.2,22.1L98.6,22.3L98.6,22.5L98.5,23L98.2,23.5L97.7,24.2L97.3,25.1L96.8,26.1L96.6,26.5L96.3,26.9L96,27.1L95.6,27.2L95.4,26.6L95.2,26.5L93.6,28L92.3,29L92.2,28.9L92.1,28.9L91.7,29L91.6,29.1L92.3,30L92.8,30.4L95,31.8L95.4,32L95.8,32.1L96.2,32.1L96.5,32L97.3,31.6L97.9,31L99.3,29L100.1,27.6L100.4,26.4L100.3,25.8L100.2,25.6L100.2,25.4L100.4,25L101.1,23.9L101.4,23.6L101.7,23.4L101.9,23.2L102.1,22.8L102.3,22.1L102.4,21.6L102.6,21.2L102.9,20.7L103.3,20.4L103.6,20.2L104.1,19.9L104.6,19.4L104.9,19.4L105,19.5L105.2,19.2L105,18.8L105.1,18.2L104.5,17.5L103.8,17.1L103.1,16.8L102.7,16.8L102.3,16.9L100.9,17.3L100.3,17.4L100,17.6L99.8,17.8L99.7,17.8L99.4,17.7L99.2,17.6L99.7,17.5L99.8,17.3L99.4,16.9L99.4,17L99.3,17L99,16.8L97.2,15.5L94.9,13.1L93.7,11.1L93.6,11.1L93.5,11.4L93.5,11.8L93.4,12.1L93.3,12.4L93.2,12.1L92.9,11.9L92.9,12.1L92.8,12.1L92.7,12.2L92.8,12.8L93,13L93.2,13.9L93.5,14.6L93.5,14.9L93.3,15.3L91.4,17.5L90.7,19.2L89.9,19.6L88.9,20.3L88.4,20.6L86.8,21.7L86.7,21.9Z M94.6,8.3L94.7,9.3L95,10.3L95.5,11.2L96,12.1L96.6,12.8L97.6,13.7L98.6,14.3L99.1,14.5L99.7,14.7L100.2,14.8L100.8,14.7L101.5,14.7L102,14.5L102.5,14.2L103.1,13.7L103.7,13L103.8,12.9L103.7,12.9L103.9,12.8L103.8,12.5L103.6,12.4L103.3,12.7L103,12.5L102.8,12.2L103,12L102.9,12L102.7,11.9L103.4,11.7L104.4,11.5L104.9,11.3L105.3,11L105.1,10.3L104.8,9.8L104.2,8.4L103.8,7.3L102.9,5.9L102.3,5.2L101.8,4.7L100.2,3.8L99.6,3.2L98.7,2.9L98.5,2.9L98.4,3.1L98.3,3.3L98.1,3.4L97.4,3.5L97.4,3.6L96.9,3.9L96.4,4L96,4.2L95.6,4.5L95.3,4.9L95.1,5.5L94.7,7.4L94.6,8.3Z M98.7,33.1L98.7,33.2L99.1,33.6L99.2,33.7L99.4,33.8L99.8,34.1L101.7,35.7L102.4,36.3L103.2,36.6L103.9,36.9L104.8,36.9L105.2,36.8L105.6,36.5L106.6,35.4L107.6,33.3L107.7,32.6L107.8,31.8L107.7,31L107.7,30.2L107.9,29.6L108.1,29L108.4,28.4L108.6,27.7L108.6,26.2L108.9,25.7L108.8,25.4L108.5,25.4L107.4,26.4L106.9,27.2L106.4,27.9L105.9,28.7L105.3,29.4L105.1,29.6L104.8,29.6L104.3,29.6L102.9,29.9L101.1,30.8L100.6,31.5L100.5,31.7L100.4,31.9L99.8,32.5L99.6,32.7L99.3,32.8L99,32.9L98.7,33.1Z M103.6,3.7L103.8,4L105.7,6.6L106.2,7L106.7,7.3L107.8,7.7L108.5,7.9L109,8.3L110.1,9.2L110.7,9.8L110.9,10.1L111,10.2L111.3,10.1L111.4,9.9L111.4,9.4L111.3,9L111,8.1L110.9,7.4L110.5,6.2L110,5L109.4,4L109,3.6L108.6,3.2L108.3,3.1L107.9,3L107,2.9L105.7,3L104.6,2.9L104.1,3L103.8,3.1L103.7,3.4L103.6,3.7Z M105.1,14.6L105.3,15.1L105.7,15.4L106.3,15.6L106.9,15.7L107.4,15.5L107.6,15.3L107.5,15.1L107.4,15L107.3,14.8L107.2,14.6L107.1,14.4L107,14.3L106.5,14.2L106,14.1L105.5,14.2L105.3,14.4L105.1,14.6Z M108.4,37.5L109.2,38.4L109.7,38.9L110,39L110.2,39.1L110.8,38.9L111.7,38.6L113.2,38.3L115.3,37.9L118.4,37.7L118.9,37.7L119.9,37.7L120.4,37.6L120.9,37.5L121.3,37.2L121.6,36.8L121.9,36.2L122.8,34.7L123.2,34L123.5,33.3L123.7,32.5L123.6,31.6L123.2,30.2L122.2,27.7L121.7,26.6L121,25.5L120.3,24.6L119.6,23.7L118.5,22.8L118.2,22.7L118,22.9L118,23L118.1,23.1L118,23.1L117.8,23L117.8,23.1L117.8,23.2L118.1,23.9L118.8,24.7L119.2,25.6L119.3,26.2L119.3,26.8L119.1,27.4L118.8,27.3L118.5,27.3L118.4,27.5L118.5,28.7L118.6,30.4L118.6,31.4L118.5,32.3L118.3,33L118,33.7L117.8,33.7L117.2,34.7L117,35.1L116.9,35.3L116.4,35.4L116.1,34.1L115.9,33.7L115.2,32.4L114.8,31.3L114.6,30.9L114.4,30.1L114,29.3L113.8,29.3L113.3,29.6L113,30.1L112.2,31.7L111.4,32.6L110.7,33L110.2,33.6L109.8,34.2L109.1,35.8L108.6,36.6L108.5,37L108.4,37.5Z M111.6,3.2L111.7,3.9L111.7,4L112,4.4L112.6,6.3L113.2,9.2L113.3,9.4L113.5,9.5L113.7,9.4L113.8,9.4L114.1,9.1L115,7.7L115.6,6.5L117.3,4L117.5,3.5L117.4,3L115.6,3L114.4,2.8L113,2.5L112.7,2.4L112.5,2.5L111.6,3.2Z M116.8,16.7L116.9,17L117.2,16.9L117.6,16.3L118.3,15.5L119.3,14.6L120.7,13.3L122.6,11.9L122.8,11.5L122.7,10.4L122.4,9.2L122.1,8.2L121.6,7.2L120.5,5.6L120.4,5.3L120.4,5L120.4,4.8L120.2,4.6L119.8,4.6L119.4,4.7L119,4.9L118.6,5.2L118.2,5.6L117.9,6L117.8,6.4L117.7,6.8L117.8,7.1L117.9,8L117.9,8.9L118,9L118.7,9L118.9,9.2L118.9,10.1L118.7,10.5L118.3,11.4L117.4,14.1L117.2,14.8L117,15.2L117.1,15.4L117.1,15.5L117.2,15.6L117.2,15.5L117.2,15.6L116.8,16.7Z M117.8,19L118.2,19.4L118.5,19.8L119.4,20.9L121,22.5L123.2,25.4L123.6,25.7L123.9,25.8L124.3,25.7L124.8,25.5L125.5,25L126,24.5L126.9,23.7L127.7,22.6L128.4,21.6L129.3,20.7L130.4,19.9L131.4,19.5L131.7,19.2L132.1,18.8L132.6,18L132.8,17.6L132.8,17.1L132.7,16.5L132.6,15.9L132.3,15.5L132,15.1L131.2,14.4L130.4,14L129.3,13.7L128,12.7L127.1,12.5L126.3,12.6L125.5,12.8L124.7,13.2L124.1,13.7L123.2,14L122.6,14.3L122,14.8L120.8,16L119.5,17.7L118.6,18.1L118.2,18.5L117.8,18.7L117.8,19Z M122.3,4.7L122.7,5.8L123.2,7.5L123.5,8.3L123.9,9.1L124.3,9.7L124.8,10.1L125.1,10.1L125.3,9.9L125.7,9.5L127.9,6.6L128,6.3L127.9,5.7L127.6,5.3L127.1,5L126.6,4.7L125.4,4.3L124.2,4.1L123.2,4L122.3,4.7Z M125.2,29.2L125.3,29.3L125.4,29.7L125.4,29.5L125.5,29.6L125.5,29.5L125.8,29.5L125.9,29.3L125.9,29.1L125.8,29L125.7,28.9L125.6,28.9L125.5,28.8L125.4,28.9L125.2,29.2Z M125.8,30.4L126,30.8L126.5,32.1L126.5,32.8L126.5,33.5L126.4,34.9L126.6,35L126.8,34.7L127,34.7L127.6,35.4L128,35.5L128.5,35.5L129.5,35.2L130.5,34.8L131.3,34.5L131.9,34.2L132.6,33.8L133.3,33.3L133.6,33L133.8,32.6L133.9,32L133.8,31.4L133.3,30.8L133,30.2L133,30L133,29.9L132.5,29.3L131.3,28.6L131.3,28.1L131.2,28L130.4,28.7L129,29.6L128.3,30L127.8,30.2L126.9,30.4L126.5,30.3L126.2,30.1L125.9,30.1L125.8,30.4Z M126.8,9.6L126.8,9.7L127,9.9L127.5,9.9L127.6,9.7L127.7,9.2L127.9,9.2L128,9.3L128.1,9.5L128.1,9.9L128.2,10.1L129.2,10.1L130.1,9.8L130.4,9.6L130.5,9.5L130.8,9.6L130.8,10.1L130.7,10.5L130.6,10.9L130.3,11.2L130.2,11.3L130.2,11.1L130.1,11.5L130.3,11.8L130.5,11.9L130.8,12L131.5,12.4L132.6,13.2L133.6,14.1L134.2,14.9L134.5,15L134.8,15L135.1,14.9L135.4,14.7L136.2,13.9L136.7,13.3L136.9,13L137,12.6L137.1,11.5L137,11.1L136.9,11L136.8,10.8L136.6,10.4L136.4,9.6L136.2,9.3L136.1,9.1L135.6,8.9L133.4,7.6L131.7,6.9L130.6,6.6L130.1,6.5L129.6,6.6L129.2,6.9L128.9,7.3L128.3,8.1L127.7,8.6L127.4,8.7L127.2,8.9L126.8,9.6Z M131.8,27.2L131.9,27.3L131.9,27.4L131.9,27.5L132.2,27.5L132.7,27.4L133,27.2L133.4,27.4L133.6,28.2L133.8,28.4L134.1,28.7L134.8,29.7L135.2,30.5L135.5,31L135.7,31.3L135.9,31.4L136.2,31.4L136.8,31.2L137.6,30.6L138.2,30.1L138.7,29.5L139.1,28.7L139.2,27.7L139.2,27.2L139,26.7L138.6,25.8L138,25L137.5,24.4L136.5,23.5L136.1,23.4L135.5,23.4L135,23.6L134.6,24L133.2,26L131.8,27L131.8,27.2Z M135,19.7L135.1,20.1L135.5,20.2L135.6,20.1L135.8,20L136.2,20L137.2,20.6L139.2,21.3L141.3,21.8L143.4,22L145.4,22L145.9,21.9L146.3,21.7L146.7,21.3L146.8,21.1L146.9,20.8L146.9,20.3L146.7,19.9L146.2,19.2L145.7,18.7L145.1,18.3L143.8,17.6L141.2,16.7L140.3,16.7L139.4,16.8L138.6,17.1L137.8,17.5L136.6,18.1L136.4,18.3L136.4,18.4L136.3,18.6L135.8,19.2L135.3,19.5L135.2,19.4L135,19.7Z" fill-rule="evenodd" fill="#202326"/></svg>
